# xmcd
#
# Track frame offsets:
#	150
#	13582
#	27007
#	39907
#	50482
#	60832
#	74632
#	91732
#	110557
#	121657
#	135757
#	150457
#	162757
#	186232
#	199507
#	209707
#	227407
#	240457
#	260182
#	274460
#	290507
#
# Disc length: 4044 seconds
#
# Revision: 1
# Processed by: cddbd v1.5.2PL0 Copyright (c) Steve Scherf et al.
# Submitted via: EasyCDDAExtractor 16.0.8.1
#
DISCID=1c0fca15
DTITLE=Wailin' Willie Kueppers - Live
DYEAR=2004
DGENRE=Blues
TTITLE0=Like A Steam Machine
TTITLE1=I Feel So Good
TTITLE2=Like A Bumble Bee
TTITLE3=Feelin' Free
TTITLE4=Get You Feeling
TTITLE5=Train Rider Blues
TTITLE6=You Turn Me Upside  Down
TTITLE7=Cant't You Understand
TTITLE8=When The Moon Tells A Storry (folk version)
TTITLE9=Sitting In A Rusty Car
TTITLE10=Wine Is Fine
TTITLE11=Ever Expected That?
TTITLE12=Stop Your Cryin'
TTITLE13=With Arms Wide Open
TTITLE14=When Lights Go Town
TTITLE15=Call Me On The Phone
TTITLE16=Ain't Too Handsome
TTITLE17=When The Rivers Stop Flowin'
TTITLE18=The Sun Behind The Clouds
TTITLE19=Blue About My Baby
TTITLE20=One Fine Day
EXTD=
EXTT0=
EXTT1=
EXTT2=
EXTT3=
EXTT4=
EXTT5=
EXTT6=
EXTT7=
EXTT8=
EXTT9=
EXTT10=
EXTT11=
EXTT12=
EXTT13=
EXTT14=
EXTT15=
EXTT16=
EXTT17=
EXTT18=
EXTT19=
EXTT20=
PLAYORDER=
